<mxfile host="app.diagrams.net" agent="Mozilla/5.0 (Windows NT 10.0; Win64; x64) AppleWebKit/537.36 (KHTML, like Gecko) Chrome/132.0.0.0 YaBrowser/25.2.0.0 Safari/537.36" version="26.0.16">
  <diagram name="Страница — 1" id="if3l0GMTZJU9LsV9UTlD">
    <mxGraphModel dx="1431" dy="2128" grid="1" gridSize="10" guides="1" tooltips="1" connect="1" arrows="1" fold="1" page="1" pageScale="1" pageWidth="827" pageHeight="1169" math="0" shadow="0">
      <root>
        <mxCell id="0" />
        <mxCell id="1" parent="0" />
        <mxCell id="5HXQijM3TObQ7hR4bUTj-1" value="User" style="shape=umlActor;verticalLabelPosition=bottom;verticalAlign=top;html=1;outlineConnect=0;" vertex="1" parent="1">
          <mxGeometry x="60" y="570" width="30" height="60" as="geometry" />
        </mxCell>
        <mxCell id="5HXQijM3TObQ7hR4bUTj-2" value="Guest" style="shape=umlActor;verticalLabelPosition=bottom;verticalAlign=top;html=1;outlineConnect=0;" vertex="1" parent="1">
          <mxGeometry x="50" y="60" width="30" height="60" as="geometry" />
        </mxCell>
        <mxCell id="5HXQijM3TObQ7hR4bUTj-3" value="Server" style="shape=umlActor;verticalLabelPosition=bottom;verticalAlign=top;html=1;outlineConnect=0;" vertex="1" parent="1">
          <mxGeometry x="770" y="300" width="30" height="60" as="geometry" />
        </mxCell>
        <mxCell id="5HXQijM3TObQ7hR4bUTj-4" value="Admin" style="shape=umlActor;verticalLabelPosition=bottom;verticalAlign=top;html=1;outlineConnect=0;" vertex="1" parent="1">
          <mxGeometry x="340" y="280" width="30" height="60" as="geometry" />
        </mxCell>
        <mxCell id="5HXQijM3TObQ7hR4bUTj-5" value="sign up" style="ellipse;whiteSpace=wrap;html=1;" vertex="1" parent="1">
          <mxGeometry x="314" y="-20" width="100" height="80" as="geometry" />
        </mxCell>
        <mxCell id="5HXQijM3TObQ7hR4bUTj-6" value="sign in" style="ellipse;whiteSpace=wrap;html=1;" vertex="1" parent="1">
          <mxGeometry x="300" y="120" width="100" height="80" as="geometry" />
        </mxCell>
        <mxCell id="5HXQijM3TObQ7hR4bUTj-8" value="update BD" style="ellipse;whiteSpace=wrap;html=1;" vertex="1" parent="1">
          <mxGeometry x="430" y="250" width="100" height="80" as="geometry" />
        </mxCell>
        <mxCell id="5HXQijM3TObQ7hR4bUTj-9" value="look for all stat" style="ellipse;whiteSpace=wrap;html=1;" vertex="1" parent="1">
          <mxGeometry x="240" y="410" width="110" height="80" as="geometry" />
        </mxCell>
        <mxCell id="5HXQijM3TObQ7hR4bUTj-10" value="look for my stat" style="ellipse;whiteSpace=wrap;html=1;" vertex="1" parent="1">
          <mxGeometry x="302.5" y="760" width="100" height="80" as="geometry" />
        </mxCell>
        <mxCell id="5HXQijM3TObQ7hR4bUTj-11" value="" style="endArrow=none;html=1;rounded=0;entryX=0;entryY=0;entryDx=0;entryDy=0;exitX=0;exitY=0.5;exitDx=0;exitDy=0;" edge="1" parent="1" source="5HXQijM3TObQ7hR4bUTj-6" target="5HXQijM3TObQ7hR4bUTj-5">
          <mxGeometry width="50" height="50" relative="1" as="geometry">
            <mxPoint x="410" y="510" as="sourcePoint" />
            <mxPoint x="320" y="140" as="targetPoint" />
            <Array as="points">
              <mxPoint x="80" y="80" />
            </Array>
          </mxGeometry>
        </mxCell>
        <mxCell id="5HXQijM3TObQ7hR4bUTj-13" value="" style="endArrow=none;html=1;rounded=0;entryX=1;entryY=0.5;entryDx=0;entryDy=0;exitX=0;exitY=0.3333333333333333;exitDx=0;exitDy=0;exitPerimeter=0;" edge="1" parent="1" source="5HXQijM3TObQ7hR4bUTj-3" target="5HXQijM3TObQ7hR4bUTj-5">
          <mxGeometry width="50" height="50" relative="1" as="geometry">
            <mxPoint x="410" y="360" as="sourcePoint" />
            <mxPoint x="460" y="170" as="targetPoint" />
            <Array as="points">
              <mxPoint x="640" y="130" />
            </Array>
          </mxGeometry>
        </mxCell>
        <mxCell id="5HXQijM3TObQ7hR4bUTj-22" value="" style="endArrow=classic;html=1;rounded=0;strokeColor=default;dashed=1;entryX=0.5;entryY=0;entryDx=0;entryDy=0;entryPerimeter=0;exitX=0.5;exitY=1;exitDx=0;exitDy=0;" edge="1" parent="1" source="5HXQijM3TObQ7hR4bUTj-6" target="5HXQijM3TObQ7hR4bUTj-1">
          <mxGeometry width="50" height="50" relative="1" as="geometry">
            <mxPoint x="170" y="390" as="sourcePoint" />
            <mxPoint x="220" y="340" as="targetPoint" />
          </mxGeometry>
        </mxCell>
        <mxCell id="5HXQijM3TObQ7hR4bUTj-24" value="" style="endArrow=classic;html=1;rounded=0;dashed=1;entryX=0.5;entryY=0;entryDx=0;entryDy=0;entryPerimeter=0;exitX=0.5;exitY=1;exitDx=0;exitDy=0;" edge="1" parent="1" source="5HXQijM3TObQ7hR4bUTj-6" target="5HXQijM3TObQ7hR4bUTj-4">
          <mxGeometry width="50" height="50" relative="1" as="geometry">
            <mxPoint x="360" y="230" as="sourcePoint" />
            <mxPoint x="460" y="310" as="targetPoint" />
          </mxGeometry>
        </mxCell>
        <mxCell id="5HXQijM3TObQ7hR4bUTj-26" value="" style="endArrow=none;html=1;rounded=0;exitX=1;exitY=0.3333333333333333;exitDx=0;exitDy=0;exitPerimeter=0;entryX=0;entryY=0.5;entryDx=0;entryDy=0;" edge="1" parent="1" source="5HXQijM3TObQ7hR4bUTj-4" target="5HXQijM3TObQ7hR4bUTj-8">
          <mxGeometry width="50" height="50" relative="1" as="geometry">
            <mxPoint x="410" y="360" as="sourcePoint" />
            <mxPoint x="460" y="310" as="targetPoint" />
            <Array as="points">
              <mxPoint x="410" y="310" />
            </Array>
          </mxGeometry>
        </mxCell>
        <mxCell id="5HXQijM3TObQ7hR4bUTj-27" value="" style="endArrow=none;html=1;rounded=0;entryX=0.97;entryY=0.328;entryDx=0;entryDy=0;entryPerimeter=0;exitX=0;exitY=0.3333333333333333;exitDx=0;exitDy=0;exitPerimeter=0;" edge="1" parent="1" source="5HXQijM3TObQ7hR4bUTj-3" target="5HXQijM3TObQ7hR4bUTj-8">
          <mxGeometry width="50" height="50" relative="1" as="geometry">
            <mxPoint x="740" y="220" as="sourcePoint" />
            <mxPoint x="460" y="310" as="targetPoint" />
          </mxGeometry>
        </mxCell>
        <mxCell id="5HXQijM3TObQ7hR4bUTj-28" value="" style="endArrow=classic;html=1;rounded=0;entryX=0.5;entryY=0;entryDx=0;entryDy=0;" edge="1" parent="1" source="5HXQijM3TObQ7hR4bUTj-4" target="5HXQijM3TObQ7hR4bUTj-9">
          <mxGeometry width="50" height="50" relative="1" as="geometry">
            <mxPoint x="300" y="490" as="sourcePoint" />
            <mxPoint x="350" y="370" as="targetPoint" />
          </mxGeometry>
        </mxCell>
        <mxCell id="5HXQijM3TObQ7hR4bUTj-30" value="" style="endArrow=none;html=1;rounded=0;entryX=0;entryY=0.5;entryDx=0;entryDy=0;exitX=1;exitY=1;exitDx=0;exitDy=0;exitPerimeter=0;" edge="1" parent="1" source="5HXQijM3TObQ7hR4bUTj-1" target="5HXQijM3TObQ7hR4bUTj-10">
          <mxGeometry width="50" height="50" relative="1" as="geometry">
            <mxPoint x="110" y="600" as="sourcePoint" />
            <mxPoint x="190" y="625" as="targetPoint" />
          </mxGeometry>
        </mxCell>
        <mxCell id="5HXQijM3TObQ7hR4bUTj-33" value="" style="endArrow=none;html=1;rounded=0;exitX=1;exitY=0;exitDx=0;exitDy=0;entryX=0;entryY=1;entryDx=0;entryDy=0;entryPerimeter=0;" edge="1" parent="1" source="5HXQijM3TObQ7hR4bUTj-9" target="5HXQijM3TObQ7hR4bUTj-3">
          <mxGeometry width="50" height="50" relative="1" as="geometry">
            <mxPoint x="410" y="390" as="sourcePoint" />
            <mxPoint x="460" y="340" as="targetPoint" />
          </mxGeometry>
        </mxCell>
        <mxCell id="5HXQijM3TObQ7hR4bUTj-34" value="" style="endArrow=none;html=1;rounded=0;entryX=0;entryY=1;entryDx=0;entryDy=0;entryPerimeter=0;" edge="1" parent="1" source="5HXQijM3TObQ7hR4bUTj-10" target="5HXQijM3TObQ7hR4bUTj-3">
          <mxGeometry width="50" height="50" relative="1" as="geometry">
            <mxPoint x="410" y="390" as="sourcePoint" />
            <mxPoint x="760" y="170" as="targetPoint" />
            <Array as="points">
              <mxPoint x="660" y="740" />
            </Array>
          </mxGeometry>
        </mxCell>
        <mxCell id="5HXQijM3TObQ7hR4bUTj-35" value="" style="endArrow=none;html=1;rounded=0;entryX=1;entryY=0.5;entryDx=0;entryDy=0;exitX=0;exitY=0.3333333333333333;exitDx=0;exitDy=0;exitPerimeter=0;" edge="1" parent="1" source="5HXQijM3TObQ7hR4bUTj-3" target="5HXQijM3TObQ7hR4bUTj-6">
          <mxGeometry width="50" height="50" relative="1" as="geometry">
            <mxPoint x="410" y="390" as="sourcePoint" />
            <mxPoint x="460" y="340" as="targetPoint" />
          </mxGeometry>
        </mxCell>
        <mxCell id="5HXQijM3TObQ7hR4bUTj-37" value="choose a theme" style="ellipse;whiteSpace=wrap;html=1;" vertex="1" parent="1">
          <mxGeometry x="360" y="500" width="95" height="80" as="geometry" />
        </mxCell>
        <mxCell id="5HXQijM3TObQ7hR4bUTj-38" value="start test" style="ellipse;whiteSpace=wrap;html=1;" vertex="1" parent="1">
          <mxGeometry x="307.5" y="590" width="90" height="80" as="geometry" />
        </mxCell>
        <mxCell id="5HXQijM3TObQ7hR4bUTj-39" value="" style="endArrow=classic;html=1;rounded=0;exitX=0.5;exitY=1;exitDx=0;exitDy=0;" edge="1" parent="1" source="5HXQijM3TObQ7hR4bUTj-5" target="5HXQijM3TObQ7hR4bUTj-6">
          <mxGeometry width="50" height="50" relative="1" as="geometry">
            <mxPoint x="450" y="430" as="sourcePoint" />
            <mxPoint x="500" y="380" as="targetPoint" />
          </mxGeometry>
        </mxCell>
        <mxCell id="5HXQijM3TObQ7hR4bUTj-40" value="" style="endArrow=none;html=1;rounded=0;exitX=1;exitY=0.3333333333333333;exitDx=0;exitDy=0;exitPerimeter=0;entryX=0;entryY=0.5;entryDx=0;entryDy=0;" edge="1" parent="1" source="5HXQijM3TObQ7hR4bUTj-1" target="5HXQijM3TObQ7hR4bUTj-37">
          <mxGeometry width="50" height="50" relative="1" as="geometry">
            <mxPoint x="100" y="600" as="sourcePoint" />
            <mxPoint x="390" y="460" as="targetPoint" />
          </mxGeometry>
        </mxCell>
        <mxCell id="5HXQijM3TObQ7hR4bUTj-41" value="" style="endArrow=none;html=1;rounded=0;exitX=1;exitY=0.5;exitDx=0;exitDy=0;entryX=0;entryY=1;entryDx=0;entryDy=0;entryPerimeter=0;" edge="1" parent="1" source="5HXQijM3TObQ7hR4bUTj-37" target="5HXQijM3TObQ7hR4bUTj-3">
          <mxGeometry width="50" height="50" relative="1" as="geometry">
            <mxPoint x="340" y="510" as="sourcePoint" />
            <mxPoint x="390" y="460" as="targetPoint" />
          </mxGeometry>
        </mxCell>
        <mxCell id="5HXQijM3TObQ7hR4bUTj-42" value="" style="endArrow=none;html=1;rounded=0;entryX=0;entryY=0.5;entryDx=0;entryDy=0;" edge="1" parent="1" target="5HXQijM3TObQ7hR4bUTj-38">
          <mxGeometry width="50" height="50" relative="1" as="geometry">
            <mxPoint x="90" y="590" as="sourcePoint" />
            <mxPoint x="390" y="460" as="targetPoint" />
          </mxGeometry>
        </mxCell>
        <mxCell id="5HXQijM3TObQ7hR4bUTj-44" value="aswer the test" style="ellipse;whiteSpace=wrap;html=1;" vertex="1" parent="1">
          <mxGeometry x="414" y="670" width="100" height="80" as="geometry" />
        </mxCell>
        <mxCell id="5HXQijM3TObQ7hR4bUTj-46" value="" style="endArrow=none;html=1;rounded=0;entryX=0;entryY=0.5;entryDx=0;entryDy=0;exitX=1;exitY=1;exitDx=0;exitDy=0;exitPerimeter=0;" edge="1" parent="1" source="5HXQijM3TObQ7hR4bUTj-1" target="5HXQijM3TObQ7hR4bUTj-44">
          <mxGeometry width="50" height="50" relative="1" as="geometry">
            <mxPoint x="160" y="670" as="sourcePoint" />
            <mxPoint x="210" y="620" as="targetPoint" />
          </mxGeometry>
        </mxCell>
        <mxCell id="5HXQijM3TObQ7hR4bUTj-47" value="" style="endArrow=none;html=1;rounded=0;entryX=0;entryY=1;entryDx=0;entryDy=0;entryPerimeter=0;exitX=1;exitY=0.5;exitDx=0;exitDy=0;" edge="1" parent="1" source="5HXQijM3TObQ7hR4bUTj-44" target="5HXQijM3TObQ7hR4bUTj-3">
          <mxGeometry width="50" height="50" relative="1" as="geometry">
            <mxPoint x="340" y="510" as="sourcePoint" />
            <mxPoint x="390" y="460" as="targetPoint" />
            <Array as="points">
              <mxPoint x="590" y="640" />
            </Array>
          </mxGeometry>
        </mxCell>
      </root>
    </mxGraphModel>
  </diagram>
</mxfile>
